<svg xmlns="http://www.w3.org/2000/svg" width="20" height="20" viewBox="0 0 20 20">
  <path fill-rule="evenodd" clip-rule="evenodd" d="M2.36374 3.31643C3.37372 2.40427 4.75205 2 5.99999 2C8.07126 2 9.34542 3.11257 9.99999 3.77862C10.6545 3.11257 11.9287 2 14 2C15.2479 2 16.6262 2.40428 17.6362 3.31644C18.6674 4.24776 19.2669 5.66715 18.995 7.5707C18.7233 9.47217 17.515 11.3148 15.9294 13.0272C14.3355 14.7486 12.3064 16.3952 10.3 17.9C10.1222 18.0333 9.87776 18.0333 9.69999 17.9C7.69356 16.3952 5.66446 14.7485 4.07063 13.0272C2.48506 11.3148 1.27668 9.47217 1.00501 7.57072C0.733043 5.66716 1.33253 4.24776 2.36374 3.31643Z" fill="#CB11AB"/>
</svg>